<?xml version="1.0" standalone="no"?>
<!DOCTYPE svg PUBLIC "-//W3C//DTD SVG 20010904//EN"
 "http://www.w3.org/TR/2001/REC-SVG-20010904/DTD/svg10.dtd">
<svg version="1.0" xmlns="http://www.w3.org/2000/svg"
 width="1080.000000pt" height="1080.000000pt" viewBox="0 0 1080.000000 1080.000000"
 preserveAspectRatio="xMidYMid meet">
<metadata>
Created by potrace 1.11, written by Peter Selinger 2001-2013
</metadata>
<g transform="translate(0.000000,1080.000000) scale(0.100000,-0.100000)"
fill="#000000" stroke="none">
<path d="M0 5400 l0 -5400 5400 0 5400 0 0 5400 0 5400 -5400 0 -5400 0 0
-5400z m6080 3245 c327 -192 641 -375 698 -408 l103 -60 -28 -17 c-139 -84
-1372 -794 -1385 -798 -17 -4 -18 34 -18 818 0 778 1 822 18 818 9 -3 285
-162 612 -353z m860 -1396 c0 -731 -2 -820 -15 -815 -29 11 -1405 811 -1405
817 0 3 55 37 123 76 67 39 383 222 702 407 319 185 583 336 587 336 5 0 8
-369 8 -821z m-1600 -924 c0 -454 -1 -825 -3 -825 -2 0 -190 107 -418 238
-228 131 -550 316 -717 412 -195 112 -298 177 -290 182 102 61 1415 817 1421
817 4 1 7 -370 7 -824z m823 419 c386 -224 706 -410 710 -414 7 -6 -1400 -830
-1417 -830 -3 0 -6 371 -6 825 0 454 3 825 6 825 3 0 321 -183 707 -406z
m-1964 -719 l331 -190 0 -435 0 -435 -331 -190 c-181 -104 -336 -191 -344
-193 -13 -3 -15 105 -15 818 0 687 2 821 14 818 7 -2 162 -88 345 -193z m2741
-626 c0 -711 -2 -820 -14 -817 -33 7 -1413 814 -1406 821 13 15 1394 815 1408
816 9 1 12 -169 12 -820z m-1600 -924 c0 -598 -3 -825 -11 -825 -6 0 -330 185
-721 412 -454 264 -704 414 -696 419 238 140 1415 818 1421 818 4 1 7 -370 7
-824z m822 418 c387 -223 707 -409 711 -413 6 -5 -1368 -820 -1415 -838 -4 -2
-8 370 -8 827 0 457 2 831 5 831 3 0 321 -183 707 -407z m778 -1343 c0 -451
-4 -820 -8 -820 -12 0 -1407 809 -1409 818 -3 7 1394 821 1410 822 4 0 7 -369
7 -820z m-764 -522 l704 -412 -28 -17 c-114 -70 -1370 -793 -1384 -797 -17 -4
-18 32 -18 817 0 607 3 821 11 821 7 0 328 -185 715 -412z"/>
</g>
</svg>
